<svg xmlns="http://www.w3.org/2000/svg" fill="#1465FF" version="1.1" viewBox="-5.0 -10.0 110.0 135.0">
 <g>
  <path d="m95.266 22.203c-8.2344-2.7695-14.703-9.2344-17.473-17.469-0.54688-1.6328-2.0742-2.7305-3.793-2.7305s-3.2461 1.0977-3.793 2.7305c-2.7695 8.2344-9.2344 14.703-17.473 17.469-1.6328 0.54688-2.7344 2.0742-2.7344 3.7969s1.1016 3.25 2.7344 3.7969c8.2344 2.7695 14.703 9.2344 17.473 17.469 0.54688 1.6328 2.0742 2.7305 3.793 2.7305s3.2461-1.0977 3.793-2.7305c2.7734-8.2344 9.2383-14.695 17.473-17.465 1.6328-0.54688 2.7344-2.0742 2.7344-3.7969s-1.1016-3.25-2.7344-3.793zm-21.266 14.609c-2.7852-4.3359-6.4727-8.0234-10.812-10.812 4.3398-2.7891 8.0273-6.4766 10.812-10.812 2.7852 4.3359 6.4766 8.0234 10.812 10.812-4.3359 2.7891-8.0273 6.4766-10.812 10.812z"/>
  <path d="m71.266 58.203c-13.895-4.6641-24.805-15.574-29.473-29.469-0.54688-1.6328-2.0742-2.7305-3.793-2.7305s-3.2461 1.0977-3.793 2.7305c-4.668 13.895-15.578 24.805-29.473 29.469-1.6328 0.54688-2.7344 2.0742-2.7344 3.7969s1.1016 3.25 2.7344 3.7969c13.895 4.6641 24.805 15.574 29.473 29.469 0.54688 1.6328 2.0742 2.7305 3.793 2.7305s3.2461-1.0977 3.793-2.7305c4.668-13.895 15.578-24.801 29.473-29.465 1.6328-0.54688 2.7344-2.0742 2.7344-3.7969s-1.1016-3.25-2.7344-3.793zm-33.266 25.805c-5.0664-9.3008-12.707-16.941-22.008-22.008 9.3008-5.0664 16.941-12.707 22.008-22.008 5.0664 9.3008 12.707 16.941 22.008 22.008-9.3008 5.0664-16.941 12.707-22.008 22.008z"/>
 </g>
</svg>