<svg xmlns="http://www.w3.org/2000/svg" version="1.1" viewBox="-5.0 -10.0 110.0 135.0" fill="#1465FF">
 <path d="m73.23 22.488h-3.5391v-5.7695c0-0.66016-0.26562-1.2969-0.73438-1.7617-0.46875-0.46875-1.1055-0.73047-1.7656-0.72656-0.66406 0.003906-1.3008 0.26953-1.7656 0.73828-0.46875 0.47266-0.72656 1.1094-0.72656 1.7695v5.75h-29.18v-5.7695c-0.011719-1.3828-1.1367-2.4961-2.5195-2.4883-0.66406 0-1.3008 0.26562-1.7695 0.73438-0.46484 0.47266-0.72656 1.1094-0.71875 1.7734v5.75h-3.7422c-6.9062 0.007813-12.5 5.6055-12.5 12.512v38.23c0 6.9023 5.5977 12.5 12.5 12.5h46.461c3.3164 0 6.4961-1.3164 8.8398-3.6602s3.6602-5.5234 3.6602-8.8398v-38.23c0-6.9062-5.5938-12.504-12.5-12.512zm-46.461 5h3.7617v1.7422c0 1.3672 1.1016 2.4805 2.4688 2.4883 0.66406 0 1.2969-0.26172 1.7656-0.73047 0.46484-0.46875 0.72656-1.1055 0.72266-1.7695v-1.7305h29.223v1.7422c0.011718 1.375 1.125 2.4844 2.5 2.4883 0.66016 0 1.2969-0.26172 1.7617-0.73047 0.46875-0.46875 0.73047-1.1055 0.72656-1.7695v-1.7305h3.5195c4.1406 0.007813 7.4961 3.3633 7.5 7.5v5.6133h-61.449v-5.6016c0-4.1445 3.3555-7.5039 7.5-7.5117zm46.461 53.242h-46.461c-4.1406 0-7.5-3.3594-7.5-7.5v-27.629h61.461v27.629c0 1.9883-0.78906 3.8945-2.1953 5.3047-1.4102 1.4062-3.3164 2.1953-5.3047 2.1953z"/>
</svg>