<svg xmlns="http://www.w3.org/2000/svg" version="1.1" viewBox="-5.0 -10.0 110.0 135.0" fill="#1465FF">
 <g>
  <path d="m38.391 23.027c-4.6953 0-9.3867 1.7891-12.973 5.3711-5.4766 5.4805-6.7891 13.562-3.8633 20.27 1.4766 3.3945 3.2461 5.0469 5.6328 7.4297v0.003906c0.75 0.75 1.9688 0.75 2.7188-0.003906 0.75-0.75 0.75-1.9648 0-2.7148-2.4414-2.4414-3.5977-3.418-4.8281-6.2461v-0.003907c-2.3086-5.293-1.3008-11.656 3.0586-16.02 5.707-5.7031 14.801-5.7031 20.508 0 0.75 0.75 1.9648 0.75 2.7148 0 5.7031-5.7031 14.797-5.7031 20.504 0 4.3633 4.3633 5.3672 10.727 3.0586 16.02-1.0312 2.3633-4.9922 6.4141-7.4297 8.8555l-13.523 13.523c-0.75 0.75-0.75 1.9648 0 2.7148s1.9688 0.75 2.7188 0l13.523-13.523c2.3828-2.3867 6.5547-6.1758 8.2344-10.035 2.9219-6.707 1.6133-14.789-3.8633-20.27-6.7266-6.7227-17.379-7.1328-24.578-1.2305-3.3672-2.7617-7.4883-4.1406-11.609-4.1406z" fill-rule="evenodd"/>
  <path d="m49.988 27.836c-0.51172 0.003906-1.0078 0.21094-1.3633 0.58203-0.35547 0.36328-0.55078 0.85547-0.54688 1.3633 0.007813 0.51172 0.21875 0.99609 0.58203 1.3516l10.184 9.9062c-0.042969 0.089844-0.089844 0.17969-0.15625 0.25781-0.26172 0.32422-0.73828 0.85156-3.082 0.30078l-7.3086-6.8438h0.003906c-0.375-0.34766-0.86719-0.53125-1.3789-0.51562-0.50781 0.015625-0.98828 0.23438-1.3359 0.60547-0.35156 0.37109-0.53516 0.86719-0.51953 1.3789 0.015625 0.50781 0.23438 0.98828 0.60938 1.3359l7.6836 7.1914-0.003906 0.003906c0.23047 0.21484 0.51172 0.37109 0.81641 0.45312 3.5938 0.96484 6.2344 0.074219 7.5-1.4883 1.2656-1.5586 1.1836-3.3594 1.1836-3.3594-0.007813-0.50781-0.21875-0.99219-0.58203-1.3438l-10.934-10.637c-0.36328-0.35156-0.84766-0.54688-1.3516-0.54297z"/>
  <path d="m53.629 59.832c-0.50781 0.003907-0.98828 0.20703-1.3477 0.5625l-6.7734 6.7734c-2.2305 2.2305-2.2305 5.9023 0 8.1328 2.2305 2.2305 5.9023 2.2266 8.1328 0l12.027-12.031c0.75-0.75 0.75-1.9648 0-2.7148s-1.9648-0.75-2.7148 0l-12.031 12.031c-0.76953 0.76953-1.9258 0.76953-2.6992 0-0.76953-0.76953-0.76953-1.9297 0-2.6992l6.7734-6.7734h0.003906c0.75-0.75 0.75-1.9688 0-2.7188-0.36328-0.36328-0.85938-0.56641-1.3711-0.5625z"/>
  <path d="m48.332 54.535c-0.50391 0.003906-0.98828 0.20703-1.3477 0.5625l-6.7734 6.7734c-2.2305 2.2305-2.2305 5.9023 0 8.1328 2.2305 2.2305 5.9023 2.2266 8.1328 0l6.7734-6.7734c0.75-0.75 0.75-1.9688 0-2.7188s-1.9648-0.75-2.7148 0l-6.7734 6.7734c-0.76953 0.76953-1.9258 0.76953-2.6992 0-0.76953-0.76953-0.76953-1.9297 0-2.6992l6.7734-6.7734v0.003906c0.75-0.75391 0.75-1.9688 0-2.7188-0.36328-0.36328-0.85938-0.56641-1.3711-0.5625z"/>
  <path d="m42.918 49.121c-0.50391 0.003906-0.98828 0.20703-1.3477 0.5625l-6.7734 6.7734c-2.2266 2.2305-2.2266 5.9023 0 8.1289 2.2305 2.2305 5.9023 2.2305 8.1328 0l6.7734-6.7734v0.003906c0.75-0.75 0.75-1.9688 0-2.7188s-1.9648-0.75-2.7148 0l-6.7734 6.7734c-0.76953 0.76953-1.9297 0.76953-2.6992 0-0.76953-0.76953-0.76953-1.9297 0-2.6992l6.7734-6.7734v0.003906c0.75-0.75 0.75-1.9688 0-2.7188-0.36328-0.36328-0.85547-0.56641-1.3711-0.5625z"/>
  <path d="m46.973 34.238c-0.50391 0.003907-0.98828 0.20312-1.3438 0.5625l-16.246 16.242c-2.2266 2.2305-2.2305 5.9023 0 8.1289 2.2305 2.2305 5.9023 2.2305 8.1328 0l6.7734-6.7734v0.003906c0.75-0.75 0.75-1.9688 0-2.7188s-1.9688-0.75-2.7188 0l-6.7734 6.7734c-0.76953 0.76953-1.9258 0.76953-2.6992 0-0.76953-0.76953-0.76953-1.9297 0-2.6992l16.242-16.242h0.003906c0.35938-0.35938 0.5625-0.84766 0.5625-1.3594 0-0.50781-0.20312-0.99609-0.5625-1.3555-0.36328-0.36328-0.85547-0.56641-1.3711-0.5625z"/>
 </g>
</svg>