<svg xmlns="http://www.w3.org/2000/svg" fill="#1465FF" xmlns:xlink="http://www.w3.org/1999/xlink" xml:space="preserve" version="1.1" style="shape-rendering:geometricPrecision;text-rendering:geometricPrecision;image-rendering:optimizeQuality;" viewBox="0 0 333.33 416.66249999999997" x="0px" y="0px" fill-rule="evenodd" clip-rule="evenodd"><defs><style type="text/css">
   
    .fil0 {fill:#1465FF;fill-rule:nonzero}
   
  </style></defs><g><path class="fil0" d="M325.5 183.85c2.65,1.2 4.48,3.87 4.48,6.97l0 49.39c0,3.1 -1.84,5.77 -4.49,6.98l-155.07 78.89c-1.11,0.63 -2.39,0.98 -3.76,0.98 -1.37,0 -2.66,-0.36 -3.78,-0.99 -51.72,-26.46 -103.57,-52.7 -155.36,-79.04 -2.65,-1.35 -4.18,-4.03 -4.18,-6.82l-0 -49.39c0,-3.1 1.84,-5.76 4.48,-6.97l33.8 -17.2c-11.37,-5.77 -22.73,-11.55 -34.09,-17.33 -2.65,-1.35 -4.18,-4.03 -4.18,-6.81l-0 -49.39c0,-3.1 1.84,-5.76 4.48,-6.97l155.37 -79.04c2.26,-1.15 4.83,-1.07 6.94,0 51.92,25.96 103.61,52.71 155.37,79.04 2.65,1.2 4.48,3.87 4.48,6.97l0 49.39c0,3.1 -1.84,5.77 -4.49,6.97l-33.77 17.18 33.78 17.19zm-151.18 -6.85l0 32.22 96.97 -49.33 0.18 -0.09 43.2 -21.98 0 -32.22 -140.35 71.41zm-3.9 51.37c-1.11,0.63 -2.39,0.99 -3.76,0.99 -1.37,0 -2.66,-0.36 -3.78,-1 -34.75,-17.78 -69.57,-35.46 -104.38,-53.13l-30.64 15.59 138.8 70.61 138.8 -70.61 -30.61 -15.57 -104.43 53.13zm-11.42 -19.15l0 -32.24c-46.73,-23.89 -93.56,-47.61 -140.35,-71.4l0 32.23 43.2 21.98 0.18 0.09 96.97 49.33zm-42.26 -109.29c-3.76,1.92 -8.37,0.42 -10.29,-3.35 -1.91,-3.77 -0.42,-8.37 3.35,-10.29l53.38 -27.16c2.26,-1.15 4.83,-1.07 6.94,0 17.84,8.92 35.6,18.11 53.38,27.16 3.77,1.91 5.26,6.52 3.35,10.29 -1.92,3.76 -6.52,5.26 -10.29,3.35l-49.91 -25.39 -49.91 25.39zm-88.88 -6.81l138.8 70.61 138.8 -70.61 -138.8 -70.61 -138.8 70.61zm146.45 181.58l0 32.22 140.35 -71.4 0 -32.23 -140.35 71.41zm-15.31 32.22l0 -32.24c-46.73,-23.89 -93.56,-47.61 -140.35,-71.39l0 32.23 140.35 71.4z"/></g></svg>