<svg xmlns="http://www.w3.org/2000/svg" fill="#1465FF" data-name="Layer 1" viewBox="0 0 64 80" x="0px" y="0px"><defs><style>
      .cls-1 {
        stroke-width: 0px;
      }
    </style></defs><path class="cls-1" d="M26,47c3.912,0,7.565-1.095,10.705-2.966l9.398,10.503c1.09,1.218,2.651,1.943,4.285,1.989.055.001.109.002.164.002,1.577,0,3.109-.632,4.227-1.749h0c1.155-1.156,1.792-2.756,1.747-4.389-.046-1.634-.77-3.196-1.987-4.286l-10.504-9.399c1.871-3.139,2.966-6.792,2.966-10.705,0-11.58-9.421-21-21-21S5,14.42,5,26s9.421,21,21,21ZM52.526,50.5c.016.547-.189,1.062-.576,1.45-.388.388-.914.586-1.451.577-.547-.015-1.05-.249-1.415-.657l-8.56-9.566,1.779-1.779,9.566,8.56c.408.365.642.868.656,1.416ZM26,9c9.374,0,17,7.626,17,17s-7.626,17-17,17-17-7.626-17-17,7.626-17,17-17Z"/><path class="cls-1" d="M28.967,15.407c3.684,1.02,6.605,3.942,7.625,7.626.245.886,1.05,1.467,1.927,1.467.177,0,.356-.023.534-.073,1.065-.294,1.689-1.396,1.395-2.461-1.394-5.031-5.383-9.021-10.414-10.414-1.061-.295-2.167.33-2.461,1.394-.295,1.064.329,2.167,1.395,2.461Z"/></svg>