<svg xmlns="http://www.w3.org/2000/svg" fill="#1465FF" version="1.1" viewBox="-5.0 -10.0 110.0 135.0">
 <path d="m78.695 18.574c-4.1016-0.39062-8.1328-1.3164-11.977-2.7539-4.6406-1.7305-8.9609-4.1797-12.852-7.2812-2.2773-1.8164-5.4609-1.8164-7.7383 0-3.8867 3.0977-8.2109 5.5469-12.852 7.2812-3.8438 1.4375-7.875 2.3633-11.977 2.7539-3.2383 0.30859-5.6797 2.9844-5.6797 6.2188v30.895c0 13.102 7.2812 24.883 19.004 30.746l12.578 6.2891c0.875 0.4375 1.8359 0.65234 2.793 0.65234 0.96094 0 1.918-0.21875 2.7969-0.65234l12.578-6.2891c11.719-5.8633 19.004-17.645 19.004-30.746l0.003906-30.895c0-3.2383-2.4414-5.9102-5.6797-6.2188zm-0.57031 37.113c0 10.723-5.957 20.359-15.547 25.156l-12.578 6.2891-12.578-6.2891c-9.5898-4.7969-15.547-14.434-15.547-25.156l0.019531-30.891c4.6484-0.44531 9.2148-1.4922 13.57-3.1172 5.2578-1.9609 10.156-4.7422 14.504-8.25 4.4023 3.5117 9.3047 6.2891 14.559 8.25 4.3594 1.6289 8.9258 2.6758 13.594 3.1172v30.895zm-13.434-15.867c1.2305 1.2109 1.25 3.1875 0.039063 4.418l-15.625 15.906c-0.58594 0.59766-1.3906 0.93359-2.2266 0.93359h-0.007812c-0.84375 0-1.6484-0.34375-2.2305-0.94531l-9.375-9.6562c-1.2031-1.2383-1.1719-3.2148 0.066406-4.418s3.2188-1.1758 4.418 0.066406l7.1484 7.3594 13.383-13.621c1.2109-1.2344 3.1836-1.25 4.418-0.039062z"/>
</svg>